<svg width="1920" height="630" viewBox="0 0 1920 630" fill="none" xmlns="http://www.w3.org/2000/svg">
    <rect width="1920" height="630" fill="#5E3DEF"/>
    <mask id="mask0" mask-type="alpha" maskUnits="userSpaceOnUse" x="0" y="0" width="1920" height="630">
    <rect width="1920" height="630" fill="white"/>
    </mask>
    <g mask="url(#mask0)">
    <path fill-rule="evenodd" clip-rule="evenodd" d="M-226.602 1001.39C-226.602 894.443 -225.839 787.623 -226.983 680.677C-227.619 634.556 -210.205 603.515 -168.64 580.015C26.3442 470.43 220.312 359.211 414.28 247.741C444.023 230.524 471.478 228.89 501.73 246.233C681.716 349.534 862.592 451.328 1042.2 555.006C1098.63 587.681 1097.23 646.243 1040.92 679.169C962.88 724.536 883.692 768.018 805.647 813.134C767.641 835.127 732.305 833.367 695.062 810.872C634.94 774.93 573.165 741.879 513.043 705.937C475.165 683.442 440.972 684.322 403.475 707.571C345.005 743.513 284.883 777.067 224.761 810.244C189.424 829.848 171.883 856.868 172.773 897.836C174.299 969.972 173.79 1042.11 172.9 1114.24C172.392 1150.31 187.645 1175.69 218.278 1193.29C283.739 1230.86 349.454 1267.94 414.534 1306.14C447.582 1325.49 478.342 1321.47 509.865 1303C570.496 1267.81 632.271 1234.51 692.139 1198.19C730.526 1174.94 766.625 1171.55 806.155 1194.55C885.471 1240.42 965.931 1284.27 1044.74 1330.9C1096.6 1361.44 1097.49 1420 1044.99 1450.41C863.227 1555.72 680.064 1658.9 497.536 1763.21C469.953 1778.92 444.277 1776.78 417.33 1761.32C220.947 1648.72 24.5646 1536.12 -172.581 1424.9C-211.476 1402.91 -227.237 1373 -226.856 1330.14C-226.093 1220.56 -226.602 1110.97 -226.602 1001.39Z" fill="black" fill-opacity="0.08"/>
    <path fill-rule="evenodd" clip-rule="evenodd" d="M736.352 671.193C736.352 576.677 737.025 482.273 736.015 387.758C735.453 346.998 750.835 319.565 787.549 298.796C959.778 201.948 1131.11 103.657 1302.44 5.14346C1328.71 -10.0723 1352.96 -11.5161 1379.68 3.8107C1538.66 95.1051 1698.43 185.067 1857.07 276.694C1906.92 305.571 1905.69 357.327 1855.95 386.425C1787.02 426.519 1717.07 464.947 1648.13 504.819C1614.56 524.255 1583.35 522.701 1550.45 502.82C1497.35 471.056 1442.78 441.846 1389.68 410.082C1356.22 390.201 1326.02 390.979 1292.9 411.526C1241.25 443.29 1188.14 472.944 1135.04 502.265C1103.83 519.591 1088.33 543.469 1089.12 579.676C1090.47 643.427 1090.02 707.177 1089.23 770.928C1088.78 802.803 1102.25 825.238 1129.31 840.787C1187.13 873.995 1245.18 906.759 1302.66 940.522C1331.86 957.626 1359.03 954.072 1386.87 937.746C1440.42 906.648 1494.99 877.216 1547.87 845.119C1581.78 824.572 1613.66 821.573 1648.58 841.898C1718.64 882.436 1789.71 921.197 1859.32 962.402C1905.13 989.39 1905.91 1041.15 1859.54 1068.02C1698.99 1161.09 1537.2 1252.28 1375.98 1344.46C1351.62 1358.34 1328.94 1356.46 1305.13 1342.8C1131.67 1243.28 958.206 1143.77 784.068 1045.48C749.712 1026.04 735.79 999.608 736.127 961.736C736.801 864.888 736.352 768.04 736.352 671.193Z" fill="black" fill-opacity="0.08"/>
    <path fill-rule="evenodd" clip-rule="evenodd" d="M1208.35 803.193C1208.35 708.677 1209.03 614.273 1208.01 519.758C1207.45 478.998 1222.84 451.565 1259.55 430.796C1431.78 333.948 1603.11 235.657 1774.44 137.143C1800.71 121.928 1824.96 120.484 1851.68 135.811C2010.66 227.105 2170.43 317.067 2329.07 408.694C2378.92 437.571 2377.69 489.327 2327.95 518.425C2259.02 558.519 2189.07 596.947 2120.13 636.819C2086.56 656.255 2055.35 654.701 2022.45 634.82C1969.35 603.056 1914.78 573.846 1861.68 542.082C1828.22 522.201 1798.02 522.979 1764.9 543.526C1713.25 575.29 1660.14 604.944 1607.04 634.265C1575.83 651.591 1560.33 675.469 1561.12 711.676C1562.47 775.427 1562.02 839.177 1561.23 902.928C1560.78 934.803 1574.25 957.238 1601.31 972.787C1659.13 1006 1717.18 1038.76 1774.66 1072.52C1803.86 1089.63 1831.03 1086.07 1858.87 1069.75C1912.42 1038.65 1966.99 1009.22 2019.87 977.119C2053.78 956.572 2085.66 953.573 2120.58 973.898C2190.64 1014.44 2261.71 1053.2 2331.32 1094.4C2377.13 1121.39 2377.91 1173.15 2331.54 1200.02C2170.99 1293.09 2009.2 1384.28 1847.98 1476.46C1823.62 1490.34 1800.94 1488.46 1777.13 1474.8C1603.67 1375.28 1430.21 1275.77 1256.07 1177.48C1221.71 1158.04 1207.79 1131.61 1208.13 1093.74C1208.8 996.888 1208.35 900.04 1208.35 803.193Z" fill="black" fill-opacity="0.08"/>
    </g>
    </svg>